<?xml version="1.0" encoding="UTF-8"?><svg id="Layer_2" xmlns="http://www.w3.org/2000/svg" viewBox="0 0 1078.57 647.07"><g id="Layer_1-2"><g><path d="M207.08,126.35c6.92-27.88,15.25-52.44,25.05-73.73,9.75-21.29,20.42-38.28,31.91-50.91-34.52,0-67.57,8.49-99.21,25.43-31.64,16.99-59.68,39.97-84.13,69.04-24.45,29.02-44,63.11-58.7,102.21C7.35,237.54,0,279.25,0,323.52s7.19,85.87,21.62,124.69c14.32,38.82,33.65,72.75,57.77,101.82,24.18,29.02,52.06,52.06,83.69,68.99,31.64,16.99,64.74,25.48,99.26,25.48h1.69c-11.49-12.63-22.16-29.62-31.91-50.91-9.8-21.29-18.13-45.85-25.05-73.78-6.86-27.88-12.36-58.54-16.39-91.91-4.03-33.32-6.04-68.12-6.04-104.38s2.01-71.88,6.04-105.25c4.03-33.38,9.53-63.98,16.39-91.91Z"/><path d="M427.12,647.07c9.2-9.2,21.02-18.68,35.39-28.48,12.09-8,27.17-16.66,45.3-25.86,18.08-9.2,39.8-17.53,65.12-25.05v-215.68h-145.82v295.07Z"/><path d="M914.62,1.69c18.4,14.97,37.08,33.11,56.08,54.34,16.06,18.46,33.65,40.89,52.6,67.3,19,26.46,37.41,56.96,55.27,91.48V1.69h-163.95Z"/><path d="M427.12,214.81c12.63-28.75,27.01-56.63,43.13-83.69,13.83-22.98,30.66-46.72,50.48-71.17,19.87-24.45,42.74-44.43,68.61-59.95h-162.21V214.81Z"/><rect x="675.63" y="1.69" width="150.99" height="644.54"/></g></g></svg>