<?xml version="1.0" encoding="UTF-8"?><svg id="Layer_2" xmlns="http://www.w3.org/2000/svg" viewBox="0 0 1619.61 340.5"><g id="Layer_1-2"><g><path d="M108.97,66.49c3.64-14.67,8.02-27.59,13.18-38.8,5.13-11.2,10.74-20.14,16.79-26.79-18.17,0-35.56,4.47-52.21,13.38-16.65,8.94-31.4,21.03-44.27,36.33-12.87,15.27-23.15,33.21-30.89,53.78C3.87,125,0,146.95,0,170.24s3.78,45.19,11.38,65.62c7.54,20.43,17.71,38.28,30.4,53.58,12.72,15.27,27.39,27.39,44.04,36.3,16.65,8.94,34.07,13.41,52.23,13.41h.89c-6.05-6.65-11.66-15.59-16.79-26.79-5.16-11.2-9.54-24.13-13.18-38.83-3.61-14.67-6.5-30.8-8.62-48.37-2.12-17.54-3.18-35.85-3.18-54.93s1.06-37.82,3.18-55.39c2.12-17.56,5.01-33.67,8.62-48.37Z"/><path d="M224.76,340.5c4.84-4.84,11.06-9.83,18.62-14.99,6.36-4.21,14.3-8.77,23.84-13.61,9.51-4.84,20.95-9.23,34.27-13.18v-113.5h-76.73v155.27Z"/><path d="M481.29,.89c9.68,7.88,19.51,17.42,29.51,28.6,8.45,9.71,17.71,21.52,27.68,35.42,10,13.93,19.68,29.97,29.08,48.14V.89h-86.27Z"/><path d="M224.76,113.04c6.65-15.13,14.21-29.8,22.69-44.04,7.28-12.09,16.13-24.58,26.56-37.45,10.46-12.87,22.49-23.38,36.1-31.55h-85.36V113.04Z"/><rect x="355.53" y=".89" width="79.46" height="339.17"/></g><g><path d="M722.71,139.49c-4.8-2.28-9.67-3.42-14.62-3.42-6.18,0-11.84,1.47-16.97,4.42-5.13,2.95-9.18,7.01-12.12,12.19-2.95,5.18-4.42,10.86-4.42,17.04s1.47,11.86,4.42,17.04c2.95,5.18,6.99,9.27,12.12,12.26,5.13,3,10.79,4.49,16.97,4.49,4.75,0,9.53-1.04,14.33-3.14,4.8-2.09,9.06-4.99,12.76-8.7l11.26,12.55c-5.23,5.33-11.31,9.53-18.25,12.62-6.94,3.09-13.97,4.63-21.1,4.63-9.6,0-18.4-2.28-26.38-6.85-7.99-4.56-14.26-10.77-18.82-18.61-4.56-7.84-6.84-16.52-6.84-26.02s2.33-18.16,6.99-25.95c4.66-7.79,11-13.93,19.04-18.4,8.03-4.47,16.94-6.7,26.74-6.7,7.13,0,14.12,1.43,20.96,4.28,6.85,2.85,12.69,6.8,17.54,11.84l-11.12,13.98c-3.52-4.09-7.68-7.27-12.48-9.55Z"/><path d="M771.78,120.24h19.11v42.64h49.77v-42.64h19.11v99.82h-19.11v-40.5h-49.77v40.5h-19.11V120.24Z"/><path d="M968.43,220.06l-8.84-21.1h-48.77l-8.84,21.1h-19.82l43.78-99.82h19.82l43.21,99.82h-20.53Zm-50.77-37.5h35.08l-17.4-41.92-17.68,41.92Z"/><path d="M1030.94,197.52c4.47,4.47,10.46,6.7,17.97,6.7s13.43-2.23,17.75-6.7c4.33-4.47,6.49-10.65,6.49-18.54v-58.75h19.11v58.75c0,8.65-1.76,16.19-5.28,22.6-3.52,6.42-8.53,11.34-15.04,14.76-6.51,3.42-14.19,5.13-23.03,5.13s-16.71-1.71-23.31-5.13c-6.61-3.42-11.67-8.34-15.19-14.76-3.52-6.42-5.28-13.95-5.28-22.6v-58.75h19.11v58.75c0,7.89,2.23,14.07,6.7,18.54Z"/><path d="M1125.49,120.24h68.88l-.14,16.68h-49.62v26.95h45.2v16.68h-45.2v39.5h-19.11V120.24Z"/><path d="M1219.37,120.24h68.88l-.14,16.68h-49.62v26.95h45.2v16.68h-45.2v39.5h-19.11V120.24Z"/><path d="M1313.24,120.24h73.15v16.68h-54.04v24.67h48.48v16.68h-48.48v25.1h55.76v16.68h-74.87V120.24Z"/><path d="M1440.78,197.52c4.47,4.47,10.46,6.7,17.97,6.7s13.43-2.23,17.75-6.7c4.33-4.47,6.49-10.65,6.49-18.54v-58.75h19.11v58.75c0,8.65-1.76,16.19-5.28,22.6-3.52,6.42-8.53,11.34-15.04,14.76-6.51,3.42-14.19,5.13-23.03,5.13s-16.71-1.71-23.31-5.13c-6.61-3.42-11.67-8.34-15.19-14.76-3.52-6.42-5.28-13.95-5.28-22.6v-58.75h19.11v58.75c0,7.89,2.23,14.07,6.7,18.54Z"/><path d="M1597.8,220.06l-17.25-29.52c-.76,.1-1.95,.14-3.57,.14h-22.53v29.38h-19.11V120.24h41.64c12.93,0,22.91,2.99,29.95,8.98,7.03,5.99,10.55,14.45,10.55,25.38,0,7.8-1.69,14.45-5.06,19.96-3.37,5.51-8.3,9.65-14.76,12.41l21.96,33.08h-21.82Zm-43.35-46.2h22.53c7.22,0,12.74-1.57,16.54-4.71,3.8-3.14,5.7-7.79,5.7-13.98s-1.9-10.65-5.7-13.69c-3.8-3.04-9.32-4.56-16.54-4.56h-22.53v36.93Z"/></g></g></svg>